<?xml version="1.0"?>
<svg xmlns="http://www.w3.org/2000/svg" xmlns:xlink="http://www.w3.org/1999/xlink" xmlns:svgjs="http://svgjs.com/svgjs" version="1.1" width="512" height="512" x="0" y="0" viewBox="0 0 512 512" style="enable-background:new 0 0 512 512" xml:space="preserve" class=""><g><g xmlns="http://www.w3.org/2000/svg"><g><path d="m458.852 344.195c-8.832 0-17.571-1.795-25.688-5.277l-44.892-19.255c-8.117-3.481-16.856-5.277-25.688-5.277h-29.637c-14.75 0-26.707 11.957-26.707 26.707v.204c0 14.75 11.957 26.707 26.707 26.707-17.66 0-35.176-3.182-51.707-9.394l-72.85-27.374c-15.079-5.666-31.756 2.919-35.904 18.485-3.572 13.393 3.837 27.718 16.828 32.549l77.524 28.828c26.059 9.69 53.639 14.652 81.441 14.652h132.316v-81.556h-21.743z" fill="#efa494" data-original="#ffd0c6" style="" class=""/></g><g><path d="m259.947 213.28v137.329l-51.555-19.372c-15.082-5.671-31.753 2.92-35.904 18.482-3.592 13.397 3.831 27.73 16.822 32.553l70.637 26.263v66.242c0 15.032-12.191 27.223-27.223 27.223h-174.097c-15.032 0-27.223-12.191-27.223-27.223v-261.497c0-36.094 29.263-65.357 65.367-65.357h97.81c36.103 0 65.366 29.263 65.366 65.357z" fill="#e0e7ef" data-original="#e0e7ef" style="" class=""/></g><g><path d="m107.918 89.583h75.514v58.336h-75.514z" fill="#3bcde5" data-original="#89dd8e" style="" class=""/></g><g><path d="m31.404 256.884v151.506h228.153l-70.247-26.118c-12.991-4.824-20.413-19.156-16.822-32.553 4.15-15.562 20.822-24.152 35.904-18.482l51.555 19.372v-93.725z" fill="#3bcde5" data-original="#89dd8e" style="" class=""/></g><g><path d="m426.144 314.575v21.332l-37.874-16.242c-8.111-3.48-16.852-5.28-25.683-5.28h-29.643c-14.752 0-26.703 11.961-26.703 26.713v.2c0 14.751 11.951 26.703 26.703 26.703-8.831 0-17.622-.79-26.273-2.37-8.651-1.57-17.172-3.92-25.432-7.021l-21.292-8.001v-36.034c0-25.103 20.352-45.455 45.455-45.455h5.241c13.471 0 24.382-10.921 24.382-24.392v-.2c-.25-4.36 5.041-6.701 8.081-3.56l20.502 21.172c4.56 4.47 10.691 6.981 17.082 6.981 24.801-.001 45.454 20.653 45.454 45.454z" fill="#f9f5f3" data-original="#f9f5f3" style="" class=""/></g><g><path d="m480.596 334.194h-22.751c-7.617 0-14.745-1.897-21.699-4.879v-14.74c0-14.666-5.809-28.552-16.356-39.099-10.548-10.548-24.433-16.356-39.1-16.356-3.751 0-7.298-1.435-10-4.043l-20.399-21.066c-4.318-4.459-10.777-5.731-16.467-3.24-5.582 2.448-9.006 7.904-8.801 13.968-.006 7.93-6.456 14.38-14.381 14.38h-5.24c-13.473 0-25.835 4.833-35.454 12.851v-58.69c0-41.553-33.81-75.358-75.368-75.358h-1.148v-48.339c0-5.523-4.478-10.001-10.001-10.001h-26.585v-40.867c15.805-.87 31.336-5.134 45.253-12.476 16.249-8.572 31.665-8.415 45.821.461 4.679 2.937 10.851 1.522 13.786-3.159 2.934-4.679 1.52-10.852-3.159-13.786-20.054-12.577-43.416-13.005-65.78-1.207-13.943 7.356-29.145 10.34-44.805 10.34-14.26 0-27.79-1.613-40.652-8.337-4.895-2.56-10.938-.665-13.496 4.23-2.559 4.895-.666 10.938 4.229 13.496 11.978 6.261 25.307 9.85 38.801 10.496v40.809h-28.926c-5.523 0-10.001 4.478-10.001 10.001v48.339h-1.146c-41.558 0-75.367 33.805-75.367 75.358v261.496c0 20.526 16.698 37.223 37.224 37.223h174.098c20.526 0 37.224-16.698 37.224-37.223v-51.942c24.967 8.569 50.99 12.918 77.448 12.918h133.199c5.523 0 10.001-4.478 10.001-10.001v-81.556c-.001-5.523-4.479-10.001-10.002-10.001zm-362.677-234.61h55.512v38.334h-55.512zm187.483 179.538h5.24c15.188 0 28.107-9.9 32.646-23.589l13.135 13.564c.061.063.122.125.184.186 6.474 6.345 15.027 9.84 24.083 9.84 19.218 0 35.454 16.235 35.454 35.453v6.161l-24.854-10.66c-8.8-3.776-18.118-5.69-27.696-5.69h-35.552c-17.536 0-31.802 14.266-31.802 31.801 0 5.933.089 11.69 2.106 17.369-4.603-1.201-9.147-2.642-13.588-4.309l-14.809-5.564v-29.108c-.001-19.55 15.904-35.454 35.453-35.454zm-208.631-121.198h97.81c30.529 0 55.366 24.833 55.366 55.356v33.603h-61.891c-5.523 0-10.001 4.478-10.001 10.001s4.478 10.001 10.001 10.001h61.891v69.281l-38.035-14.292c-20.341-7.645-43.51 4.337-49.089 25.271-4.876 18.293 5.254 37.909 23.002 44.5l18.136 6.743h-162.556v-131.503h58.743c5.523 0 10.001-4.478 10.001-10.001s-4.477-10.001-10.001-10.001h-58.743v-33.603c0-30.523 24.837-55.356 55.366-55.356zm135.953 334.074h-174.097c-9.496 0-17.221-7.725-17.221-17.221v-56.386h208.541v56.386c-.001 9.496-7.726 17.221-17.223 17.221zm237.871-76.248h-123.198c-26.115 0-51.768-4.616-76.246-13.718l-78.351-29.136c-8.205-3.05-12.912-12.143-10.648-20.6 2.597-9.735 13.314-15.232 22.721-11.698l73.684 27.687c17.394 6.536 35.822 9.742 54.39 9.72h43.024c5.523 0 10.001-4.478 10.001-10.001s-4.478-10.001-10.001-10.001h-42.93c-.033 0-.064-.005-.097-.005-9.209 0-16.701-7.492-16.701-16.701-.052-9.142 7.515-16.91 16.704-16.91h29.719c7.486.01 14.773 1.512 21.663 4.469l45.819 19.648c8.8 3.776 18.118 5.69 27.697 5.69h12.75z" fill="#000000" data-original="#000000" style="" class=""/><path d="m135.437 260.71c2.097 5.028 8.02 7.502 13.061 5.41 5.031-2.088 7.502-8.024 5.411-13.061-2.089-5.031-8.023-7.502-13.061-5.411-5.025 2.085-7.506 8.028-5.411 13.062z" fill="#000000" data-original="#000000" style="" class=""/></g></g></g></svg>
