<?xml version="1.0" encoding="utf-8"?>
<!-- Generator: Adobe Illustrator 25.2.1, SVG Export Plug-In . SVG Version: 6.00 Build 0)  -->
<svg version="1.1" id="Layer_1" xmlns="http://www.w3.org/2000/svg" xmlns:xlink="http://www.w3.org/1999/xlink" x="0px" y="0px"
	 viewBox="0 0 1024 360" style="enable-background:new 0 0 1024 360;" xml:space="preserve">
<g id="Layer_1_1_">
	<g>
		<g>
			<g>
				<g>
					<path d="M307.8,344.7v-56.8h25.3c9.9,0,16,6,16,14.5c0,7.2-4.7,11.9-10,13c6.1,0.9,11.1,7.2,11.1,14c0,9.1-6.1,15.3-16.4,15.3
						H307.8z M341.7,303.4c0-5.1-3.4-9.2-9.8-9.2h-17.1v18.3h17.1C338.3,312.4,341.7,308.5,341.7,303.4z M342.8,328.6
						c0-5.1-3.5-9.8-10.4-9.8h-17.5v19.6h17.5C338.8,338.5,342.8,334.7,342.8,328.6z"/>
					<path d="M397.2,344.7v-56.8h37.3v6.4h-30.2v18.3h29.5v6.4h-29.5v19.6h30.2v6.4h-37.3V344.7z"/>
					<path d="M522,344.7l-5-12.7h-28.3l-5,12.7h-8.1l22.9-56.8h8.8l22.9,56.8H522z M502.8,295.1l-12.1,30.6h24.1L502.8,295.1z"/>
					<path d="M571.1,322.6v-34.7h7.2v34.6c0,10.4,5.6,16.9,16,16.9c10.4,0,16.1-6.5,16.1-16.9v-34.6h7.2v34.7
						c0,14.1-7.9,23.2-23.3,23.2C578.9,345.8,571.1,336.6,571.1,322.6z"/>
					<path d="M680.7,344.7v-50.5h-18v-6.2h43.1v6.4h-18v50.5h-7V344.7z"/>
					<path d="M767.5,344.7v-24l-22.5-32.8h8.3l17.6,26.4l17.6-26.4h8.3l-22.4,32.8v24L767.5,344.7L767.5,344.7z"/>
				</g>
			</g>
		</g>
		<g>
			<path d="M312.1,66.4C312.1,66.4,312,66.2,312.1,66.4c-0.1-0.1-0.3-0.1-0.3-0.1l0,0L312.1,66.4z M247.8,37.1
				c-0.3-0.4-0.4-0.8-0.7-1.2c-6-0.8-12.1-1.4-18.3-1.4c-72.8,0-122.2,55.1-122.2,128.7c0,40.1,14.8,74.8,40.1,98.1
				c6.8-7.5,14.9-13.5,23.8-18.2c-0.5-0.4-0.9-0.9-1.5-1.5c-1.8-0.1-3.3-0.8-4.3-2.2c-0.8-0.9-1.1-2.2-1.1-3.3
				c-16.1-18-25.2-43.6-25.2-72.9c0-50.8,26.8-90,70.5-99c0.1-1.2,0.4-2.4,0.8-3.8c0-0.5,0-1.2,0.3-1.8l0.1-0.5
				c0.1-0.7,0.4-1.5,0.8-2.6c0-1.4,0.5-2.8,1.5-3.8c0,0,0.9-1.1,1.1-1.4c0.1-1.1,0.5-2.2,1.4-3c0.3-0.3,0.4-0.5,0.5-0.8
				c0.5-0.8,1.4-1.9,2.4-2.8c0.5-0.9,1.4-1.8,2.3-2.3l1.9-0.9c1.1-0.5,2-1.1,3-1.6c1.5-0.9,3-1.4,4.6-1.4l0,0c0.9-0.5,1.9-0.8,3-0.8
				c0.4,0,0.8,0,1.2,0.1c0.5-0.1,1.2-0.3,1.9-0.3c0.3,0,0.8,0,1.1,0.1c2.8,0.5,5.6,0.9,8.3,1.6c0.9,0.3,1.9,0.7,2.8,1.1
				c0.3,0.1,0.4,0.3,0.7,0.3c0.1,0,0.1,0,0.3,0c-0.4-0.5-0.7-1.1-0.9-1.8C247.9,37.8,247.9,37.5,247.8,37.1z M330.3,88.2
				c0.4,0.9,0.5,1.9,0.5,2.8c0.3,1.2,0.1,2.3,0,3c0.4,2.4-0.4,4.5-0.9,6c-0.1,0.3-0.3,0.7-0.3,0.9c-0.3,1.2-0.9,2.2-1.9,3
				c-1.9,3-4.5,5.1-7.6,6.6c-0.8,0.4-1.8,0.7-2.6,0.7c-1.1,0-2.2-0.3-3.1-0.9c-1.8-1.1-2.8-3-2.8-5v-1.8c0-0.9,0-1.9,0-2.8
				c-0.3-6.6-2.8-11.7-7.9-15.3c-2.6-1.9-5.6-3.4-9.1-4.5l5.4,10.7c0.7,1.2,0.8,2.7,0.5,4.1c0.1,0.8,0.1,1.6,0.1,2.4
				c12.2,17.2,19.1,39.7,19.1,65.2c0,24.7-6.6,46.6-18.4,63.8c9.5,4.2,17.8,10.3,24.8,17.8c16.3-21.8,25.3-50,25.3-81.6
				C351.3,134.8,343.7,109.1,330.3,88.2z"/>
			<path d="M479.6,38.1h-32.8l-79.7,197.6c2.8,0.3,5.7,0.5,8.8,0.7l19.5,0.7L380,248.9c-0.7,0.5-1.4,0.9-2,1.5h13.4l18.8-47.4h105.7
				l18.8,47.4H565L479.6,38.1z M418.2,179.8l44.8-114.6l45.3,114.6H418.2z"/>
			<path d="M575.5,220.6l16-20.3c13.7,16,36.6,30.6,66.5,30.6c37.9,0,50-20.3,50-37c0-54.7-125.7-24.3-125.7-100
				c0-35.1,31.2-59.2,73.3-59.2c32.1,0,57.3,11.1,75.2,29.9l-16,19.4c-16-17.9-38.2-25.5-61.5-25.5c-25.2,0-43.6,13.7-43.6,33.7
				c0,47.8,125.7,20.3,125.7,99.7c0,30.6-21,62.5-78.3,62.5C620.4,254.3,593,240.4,575.5,220.6z"/>
			<path d="M774.9,250.5V38.1h26.4v212.5L774.9,250.5L774.9,250.5z"/>
			<path d="M838.3,220.6l16-20.3c13.7,16,36.6,30.6,66.5,30.6c37.9,0,50-20.3,50-37c0-54.7-125.7-24.3-125.7-100
				c0-35.1,31.2-59.2,73.3-59.2c32.1,0,57.3,11.1,75.2,29.9l-16,19.4c-16-17.9-38.2-25.5-61.5-25.5c-25.2,0-43.6,13.7-43.6,33.7
				c0,47.8,125.7,20.3,125.7,99.7c0,30.6-21,62.5-78.3,62.5C883.1,254.3,855.8,240.4,838.3,220.6z"/>
		</g>
		<path d="M138.3,251.9c-16.5,13.3-33.1,25.2-52,33.9c-19.1,8.7-39.3,11.8-60.4,12.1c19.5,14.8,40.6,22.6,64.9,18.3
			c18.3-3.3,33.9-12.7,48.9-23.2c20.7-14.5,40.9-29.8,62.3-43.4c22.1-14,46.7-19,72.9-14.1c2.8,0.5,5.7,1.1,8.5,1.5
			c-5.4-5.4-11.2-9.6-17.5-12.9c-16.7-8.9-34-14.8-53.5-12.5c-19,2.3-34.8,11.4-49.9,22.2L138.3,251.9z M306.6,215.8
			c-6.8-5-13-9.8-19.4-14.4c-12.7-9.2-26.3-15.6-42.5-14c-12.1,1.4-22.2,6.5-31.6,13.5c-0.1,0.7-0.3,1.2-0.4,1.9
			c21.3-3.8,40,2.4,57.5,14c8.4,5.6,16,12.2,24.4,17.6c11.1,6.9,22.1,14.5,34.1,19.1c17.1,6.6,32.9,0.8,47.2-10.3
			c-18-0.7-35-3.9-50.5-14.6L306.6,215.8z"/>
		<path d="M199.8,184.4c1.9-3.9,5-6.8,7.3-10.3c2-3,4.7-5.4,7.2-8.1c1.9-2,4.5-3.8,6-6.1c2.7-4.1,6.4-7,9.6-10.4
			c3.3-3.3,6.5-6.6,9.6-9.9c2.8-3,5.7-6,8.4-9.1c2.2-2.3,4.2-4.6,6.2-7c1.4-1.8,2.4-3.7,3.7-5.6c1.8-2.4,3.8-4.6,5.1-7.3
			c3-5.3,5.6-10.7,8.4-16.1c0.3-0.7,0.9-1.5,1.5-1.5c3.9-0.3,6.1-4.6,5.1-7.7c0-0.1,0-0.3,0-0.4c1.2-0.1,2.3-0.3,3.7-0.5
			c-1.9,3,0.7,3.7,2.2,5.1c-0.8-0.1-1.5-0.3-2.3-0.4c-1.1,3.5,1.9,3.7,3.7,5c-1.1-0.1-2.2-0.4-3.3-0.5c-0.3,0.8-0.3,0.8,2.7,2.6
			c-0.9,0-1.9-0.1-2.8-0.1c-0.7,2.3,1.6,1.9,2.6,3c-0.9,0.1-1.8,0.3-2.6,0.4v2c1.4-0.1,2.6-0.1,3.8-0.3c0,0.1,0.1,0.1,0.1,0.3
			c-0.8,0.4-1.8,0.9-2.7,1.1c-1.5,0.3-1.9,1.2-1.6,2.7c0.9-0.1,1.8-0.3,2.7-0.4c0,0.1,0,0.1,0.1,0.3c-0.9,0.3-1.8,0.7-2.8,1.1
			c-0.1,0.9-0.3,1.9-0.3,3.1c0.9,0,1.9-0.1,3-0.1c-0.3,0.3-0.4,0.5-0.7,0.5c-2.4,0.3-2.8,1.9-3,4.1c0,1.1-0.1,2.2-0.3,3.3
			c0.7-0.3,1.1-0.5,1.6-0.8c-0.9,1.2-1.8,2.3-2.6,3.5l0.4,0.4c0.4-0.1,0.9-0.4,1.4-0.5c-3,2-2,6-4.1,8.5c2.7-2.2,5.4-4.3,6.8-7.7
			c0.1,0.1,0.3,0.4,0.4,0.7c1.2-1.6,3-2.8,2-5.3c0.3,0.4,0.4,0.8,0.8,1.4c0.4-0.7,0.9-1.4,1.4-2c-0.5-0.5-0.9-0.9-1.6-1.8
			c0.9,0.3,1.5,0.4,2,0.7c1.5-1.2,1.5-2.4,0-3.9c0.5,0.3,0.9,0.7,1.5,0.9c0.9-1.2,0.9-1.2-0.3-2.8c0.4,0.3,0.8,0.5,1.4,0.8
			c1.1-1.5,1.6-3,0.1-4.7c0.4,0.3,0.8,0.5,1.2,0.8c0.8-1.5,0.8-1.5-2.3-5c1.1,0.4,2.2,0.8,3.3,1.2c0.1-0.1,0.3-0.1,0.4-0.3
			c-0.4-0.7-0.8-1.5-1.2-2.2c0.1,0,0.7,0.1,1.1,0.1c0.4-2.4-0.1-4.3-2.8-5c0.8,0.1,1.5,0.1,2.8,0.4c-2.6-4.9-4.7-9.3-7.2-13.8
			c-1.4-2.6-2.7-5-3.9-7.5c0.1-0.1,0.1-0.3,0.3-0.4c3.1,0.7,6.4,1.1,9.5,1.9c4.9,1.2,9.6,3.1,13.7,6.2c6.6,4.9,10,11.7,10.3,19.9
			c0,1.5,0,3,0,4.7c2.3-1.1,4.1-2.8,5.4-4.9c0.3-0.4-0.5-1.6-0.7-2.7c0.4,0.5,0.7,1.1,1.1,1.8c0.1,0,0.4-0.1,0.5-0.1
			c0.4-1.6,1.6-3.4,1.1-4.7c-0.4-1.4-2.4-2.2-3.9-3.4c1.4,0.5,2.7,1.1,3.9,1.6c0.5-1.8-1.4-1.6-1.9-2.7c0.7,0.3,1.1,0.4,1.6,0.5
			c0.1-0.1,0.3-0.1,0.3-0.3c-0.4-0.5-0.8-1.2-1.1-1.8c0.7-0.4-0.1-2.8-1.5-3.1c-0.5-0.1-1.2-0.3-2.2-0.5c1.1,0,1.6-0.1,2.3-0.1
			c-1.1-2.7-1.2-2.7-3.9-2.6c-1.2,0.1-2.4-0.1-3.7-0.3c0-0.3,0-0.4,0-0.7c1.4-0.4,2.8-0.8,4.3-1.2c-0.9-2.6-2.8-1.1-4.7-1.2
			c1.1-0.5,1.8-0.8,2.7-1.4c-1.6-1.5-3.3-2.8-4.9-4.1c-0.3-0.3-1.1-0.1-1.5,0c-0.9,0.3-1.8,0.7-2.8,0.8c0.8-0.7,1.5-1.4,2.6-2.4
			c-1.1-0.3-1.8-0.4-2.4-0.7c-0.7-2-3-1.9-4.3-3.3c-0.5,0.9-0.8,1.6-1.2,2.3c-0.1,0-0.1-0.1-0.3-0.1c0.1-0.7,0.4-1.5,0.7-2.4
			c-1.1-0.5-2.2-0.9-3.4-1.5c-0.3,0.7-0.5,1.4-0.8,2c-0.1-0.1-0.3-0.1-0.3-0.1c0.4-2-0.8-2.8-2.6-3.1c-1.2-0.3-2.4-0.7-3.7-0.9
			c0,0.7-0.1,1.1-0.1,1.6c-0.3-1.8-1.4-2.3-3-2.2c18.2-4.6,36.2-4.1,54.2,0.4c-1.6-2.8-4.2-4.7-6.8-4.7c0.4-0.4,0.8-0.7,1.1-0.9
			c-1.8-2.8-4.5-1.6-6.9-1.9c1.1-0.4,2.2-0.8,3.4-1.2c-1.5-0.9-2.7-2-4.1-2.7c-0.5-0.3-1.5,0-2.3,0.1c0.3-0.3,0.7-0.4,0.9-0.7
			c-0.9-1.2-2-1.2-3.3-0.4c-1.1,0.5-2.2,1.1-3.3,1.5l3.4-3c-0.1-0.1-0.1-0.4-0.3-0.5c-0.8,0.3-1.8,0.5-2.7,0.9
			c0.4-0.4,0.7-0.7,1.1-0.9c-2.7-1.6-2.8-1.6-5.3,0.3c-0.8,0.7-1.6,1.4-2.7,1.8c1.1-1.2,2.2-2.6,3.3-3.9c-1.1-0.8-1.8-0.5-2.6,0.3
			c-1.2,1.2-2.3,2.3-3.8,3.4c0.7-1.5,1.4-3.1,2-4.7c-1.8-0.3-1.5,1.9-3,2.3c0.5-0.9,0.9-1.6,1.4-2.4c-3.1-1.1-3.5-0.9-5.3,1.5
			c-0.8,1.1-1.6,2.2-2.4,3.3c-0.1,0-0.3-0.1-0.4-0.1c0.7-1.6,1.4-3.4,2-5c-2.6-0.5-2.7-0.5-3.7,1.8c-0.5,1.4-1.2,2.7-1.8,4.2
			c-0.7-0.8-0.7-0.8-0.7-5.4c-0.7-0.1-0.7-0.1-1.8,2.7c0.1-1.1,0.1-1.8,0.1-2.7c-1.9,0.4-3.9,0.1-4.3,2.8c-0.1-0.5-0.1-1.1-0.3-2.2
			c-0.7,0.9-1.2,1.5-1.6,2.2c0-0.1-0.1-0.5-0.3-0.9c-2.8,0.4-1.6,3.4-3.4,4.6c0.1-1.1,0.1-2.2,0.3-3.5c-1.4,0.7-2.7,1.1-3.4,1.9
			c-0.7,0.8-0.7,2.2-1.2,3.3c-0.3-1.5-0.9-2.6-0.1-4.2c5.3-10.6,10.3-21.3,13.3-32.8c0.3-0.9,0.5-1.9,0.7-3c0-0.1-0.1-0.1-0.3-0.4
			c-1.8,1.9-4.5,3-4.5,6.2c-0.1-0.4-0.1-0.7-0.3-1.1c-2.2,1.5-2.2,3.8-2.7,6c-0.1-0.7-0.1-1.2-0.3-2.2c-1.8,2.6-3.3,4.9-4.7,7.3
			c-0.3,0.4,0,0.9,0,1.5s0.1,1.1-0.1,1.8c-0.3-0.4-0.5-0.8-1.2-1.8c-0.1,1.4-0.3,2.2-0.4,3.1c0,0-0.3-0.1-0.8-0.5
			c-0.7,1.8-1.9,3.4-2,5c-0.1,1.2,0.4,2.4,0.8,3.7c-0.7-0.5-1.2-1.1-1.9-1.8c-0.1,0.1-0.4,0.3-0.5,0.5c-0.1,0.9-1.8,2.2,0,2.7
			c-0.9,0.8-2,1.8-3.1,2.7c0.4,0.8,0.7,1.4,0.7,1.5c-0.8,0.5-1.5,0.8-1.8,1.4c-0.3,0.4-0.1,1.2-0.3,1.9c-1.6-0.3-1.1,2-2.2,2.8
			c-0.5-1.4-1.1-2.7-1.6-4.3c-0.4,0.3-0.7,0.5-0.9,0.8c0-0.1,0-0.3,0-0.4c0.7-0.9,0.7-1.9,0.1-3c-0.8-1.4-1.4-2.8-2.2-4.3
			c-0.4,0.5-0.7,0.9-1.1,1.4c1.4-2.2-0.3-3.7-1.2-5.1c-0.9-1.5-2-3-3.1-4.5c-0.4,0.8-0.7,1.4-0.9,1.9c-0.1-0.1-0.3-0.1-0.3-0.1
			c0.9-2-0.4-3.4-1.5-4.7c-1.2-1.5-2.6-2.8-4.1-4.5c-0.3,0.7-0.4,0.9-0.4,0.9c-0.8-0.9-1.6-2.2-2.7-3c-2.2-1.6-4.6-3.1-6.9-4.6
			c-0.1,0.1-0.3,0.3-0.5,0.4c1.5,2.3,3.5,4.3,4.3,6.9c0.9,2.7,2.2,5,3.8,7.3c-0.4,0.4-0.1,1.1,1.1,1.2c0.7,0,1.4,0,2,0.3
			c-0.7,0.3-1.5,0.4-2.3,0.7c0.9,1.8,1.8,3.5,2.8,5c0.3,0.4,1.4,0.4,2,0.5c-0.3,0.1-0.7,0.4-1.2,0.7c0.3,1.5,0.3,1.5,3.5,0.9
			c-1.1,0.7-1.8,1.2-2.6,1.8c1.1,2,2.3,4.1,3.4,6.1l-0.1,0.1c-1.2-0.9-2.6-2-3.8-3c-3.3-2.3-6.8-3.8-10.8-4.2
			c-1.4-0.1-2.6-1.1-3.9-1.5c-2.6-0.7-5.3-1.1-7.9-1.6c-0.4-0.1-0.8,0.3-1.5,0.5c-0.4-0.1-1.1-0.3-1.9-0.5c0,0.1-0.1,0.3-0.1,0.4
			c0.4,0.7,0.8,1.2,1.5,2c-1.9-0.5-3.4-2.4-5.6-1.1c-1.6,0.9-3.3,1.8-5.3,2.8c1.2,0.4,1.9,0.7,2.8,1.1c-1.5,0.1-2.8-0.1-3.9,0.3
			c-1.1,0.5-1.6,1.9-2.7,3c1.5,0.3,2.6,0.4,3.8,0.7c0,0.1,0,0.1,0,0.3c-1.4,0.3-2.8,0.4-3.9,1.1c-1.1,0.5-1.8,1.8-2.6,2.7
			c0.1,0.1,0.3,0.3,0.4,0.4c0.4,0,0.8,0,1.2-0.1c-0.7,0.7-1.5,1.1-1.9,1.6c-0.4,0.7-0.5,1.5-0.8,2.4c0.5-0.3,1.1-0.5,1.5-0.7
			c-2.3,2.2-2.4,4.9-2.6,8c2.4-1.2,4.6-2.4,7-3.8c-0.5-0.3-0.8-0.5-1.4-0.8c3.1,0.1,3.9-0.1,7.3-2c-0.7-1.2-1.4-2.3-2-3.5
			c0-0.1,0.1-0.1,0.1-0.3c0.7,0.5,1.6,0.9,2.2,1.6c1.2,1.5,2.4,1.6,4.1,0.3c-0.7-1.1-1.4-2-2.2-3.1c0.1-0.1,0.1-0.1,0.3-0.3
			c0.5,0.4,1.1,0.8,1.5,1.4c1.8,1.6,3.3,1.9,5.1,0.7c0.3-0.1,0.4-0.7,0.5-0.8c0.5,0.1,1.1,0.4,1.5,0.3c0.4-0.1,0.8-0.7,0.8-1.1
			c0-1.9-0.3-3.7-0.1-5.7c0.9,1.9,1.9,3.8,2.8,6c0.8-0.1,1.6-0.3,2.7-0.4v-3.1c0.5,1.1,1.1,2,1.5,3c0.1-0.1,0.4-0.1,0.5-0.3v-3.8
			c0.1,0,0.3,0,0.3,0c0.1,1.2,0.4,2.4,0.5,3.8c1.2-0.1,2.4-0.1,3.8-0.3c0.1-0.5,0.4-1.2,0.5-1.8c0.1,0,0.1,0,0.3,0
			c0,0.5,0,1.1,0.1,1.8c2.3,0.4,4.7,0,6.2,2.3c-1.8-0.3-3.4-0.4-5-0.5c-7.9-0.8-13.7,2.7-18.2,8.8c-4.7,6.4-7,13.7-8.4,21.4
			c-1.1,6.9-0.9,13.8,0.9,20.7c0.1-0.9,0.4-1.8,0.5-2.7c0.7-4.1,1.5-8,2-12.1c0.1-1.4-0.1-2.7-0.3-3.9c0.1,0.1,0.4,0.5,0.8,0.8
			c0.1,0,0.3-0.1,0.3-0.1c0.1-0.8,0.1-1.8,0.1-2.7c0,0,0.1,0.1,0.4,0.3c1.2-3,2.6-6,0-9.1c0.1,0,0.3,0,0.5-0.1
			c0.3,0.4,0.5,0.9,0.9,1.4c0.3,0.4,0.7,0.9,1.1,1.5c1.1-1.2,1.5-2.3,0.5-3.9c-0.5-0.8-0.7-1.8-0.5-2.8c0.8,0.9,1.6,1.8,2.4,2.8
			c0.4-0.5,0.8-1.1,1.2-1.5c-0.4-0.7-0.8-1.2-1.2-1.9l0.1-0.1c0.4,0.4,0.9,0.8,1.6,1.5c1.2-1.9-0.8-3.1-0.7-4.9
			c0.8,1.1,1.5,2,2.2,3.1c0.9-0.7,1.8-1.4,2.6-2c-0.9-1.1-1.8-2-2.6-3.1l0.1-0.1c0.7,0.7,1.4,1.2,2,1.9c0.9,1.1,1.6,0.9,2.6-0.1
			c-0.5-1.2-1.1-2.4-1.5-3.7c0.1-0.1,0.1-0.1,0.3-0.3c0.7,0.9,1.4,1.9,2,2.7c0.3,0.3,0.7,0.4,1.1,0.5c0.1-0.4,0.1-0.8,0.3-1.1
			c0,0.1,0,0.3,0,0.5c0.9,0,1.8-0.1,2.8-0.3c-0.1-0.9-0.3-1.8-0.4-2.6c0.1,0,0.1,0,0.3-0.1c0.3,0.7,0.5,1.4,0.8,2.2
			c0.4-0.1,0.9-0.3,1.4-0.3c-0.1-1.6-0.1-3.3-0.3-4.7c0.1,0,0.3,0,0.4-0.1c0.4,0.8,0.7,1.6,1.1,2.4c1.1,2.3,1.1,2.3,3.8,1.8
			c-0.7-1.1-1.4-2.2-1.9-3.1c0.1,0,0.1-0.1,0.3-0.1c0.8,0.8,1.6,1.8,2.4,2.6c0.4,0.3,0.8,0.9,1.2,0.8c2-0.4,2.8,1.6,4.9,2
			c-1.6,0.7-3.5-1.5-4.3,1.2c1.5,0.5,2.8,1.1,4.3,1.6c0,0.1,0,0.1-0.1,0.3c-0.8-0.1-1.6-0.4-2.4-0.5c-3.1-0.4-2.2-0.9-3.9,2
			c1.1,0.4,2.2,0.8,3.7,1.5c-1.9-0.1-3.1-0.3-4.5-0.4l-0.1,0.5c0.8,0.4,1.8,0.8,2.6,1.1V77c-0.9-0.3-1.8-0.4-2.8-0.7
			c-0.3,0.5-0.5,1.1-0.8,1.5c1.6,0.8,3.3,1.5,5.3,2.4c-2.4,0.4-4.6-1.4-6.5,0c0,0.1,0,0.4,0,0.5c1.1,0.4,2.2,0.7,3.3,1.1
			c0,0.1,0,0.1,0,0.3h-4.1c0,0.1,0,0.3,0,0.4c0.8,0.3,1.5,0.4,2.3,0.7c0,0.1,0,0.1,0,0.3c-0.8-0.1-1.8-0.1-2.7-0.3
			c-0.4,0.9-0.8,1.9-1.2,2.8c1.4,0.4,2.4,0.8,3.7,1.2c0,0.1,0,0.1,0,0.3c-1.4-0.1-2.7-0.3-3.9-0.4c-0.5,1.4-1.1,2.7-1.5,4.1
			c1.1,0.5,2,0.9,3.4,1.5c-1.9,0.4-4.3-1.6-4.3,1.9c1.2,0.3,2.3,0.5,3.8,0.9c-1.6,0.9-3.8-0.7-4.7,1.9h2.7c0,0.3-0.1,0.4-0.1,0.4
			c-1.9,0-3.3,0.5-3.5,2.8c-0.3,2.3-0.8,4.5-1.4,6.9c0.4,0.1,0.8,0.1,0.9,0.1c-0.4,0.8-0.8,1.6-1.4,2.7h1.4c0,0.1-0.1,0.3-0.1,0.3
			c-1.5,0.5-1.2,2-1.1,3c0.3,2.7,0.3,5.6,2.4,8.1c-2.4,2.4-4.7,5-7.2,7.5c-0.3,0.3-0.5,0.4-0.7,0.7c-2.6,2.8-5.1,5.8-7.7,8.5
			c-3.9,4.1-7.7,8-11.9,11.8c-5.1,4.6-9.9,9.3-14.2,14.6c-2.7,3.4-6,6.5-9.1,9.9c-4.9,5.1-7.7,8.7-13.1,20.7
			c-1.6,3.5-3,6.9-4.7,10.2c-1.6,3.1-3,6.2-4.1,9.6c-1.2,4.1-2.4,8.3-3.5,12.3c-0.7,2.7-1.4,5.4-2,8.3h11.9
			c-0.3-1.2-0.4-2.4-0.7-3.7c0-0.1,0.4-0.4,0.5-0.7c-0.1-0.7-0.4-1.4-0.3-1.9c1.5-5,1.9-10.3,4.3-15c0.1-0.1,0.1-0.4,0.3-0.7
			c0.9-2.8,1.8-5.7,2.8-8.5c0.5-1.6,1.5-3.1,2.3-4.7C193,193.8,199.8,184.4,199.8,184.4z M266.5,90.8c-1.2-0.8-2.4-1.8-3.7-2.6
			C264.3,88.6,266.2,88.5,266.5,90.8z M247.5,120.9c0.3-3.9,1.4-7.3,2.7-10.6c0.3-0.8,0.4-1.8,0.4-2.7c0-0.5-0.1-1.1-0.1-1.6
			c0.1,0,0.1,0,0.3,0c0.3,0.7,0.5,1.2,0.8,1.9c0.1,0,0.4,0,0.5,0c0-0.8,0.3-1.6,0.1-2.4c-0.1-1.1-0.4-2.3-0.5-3.4c0.1,0,0.3,0,0.3,0
			c0.5,1.2,1.1,2.3,1.5,3.4c1.8-0.7,0.5-1.8,0.5-2.7c0.4,0.5,0.8,0.9,1.1,1.5c0.8-0.7,1.4-1.4,2-1.9c-0.4-0.8-0.7-1.5-1.1-2.2
			c0.1,0,0.1-0.1,0.3-0.1c0.4,0.5,0.8,1.1,1.4,1.8c1.6-1.9-1.4-2.4-0.9-3.9c0.8,0.5,1.8,1.2,2.7,1.9c0.7-0.8,1.4-1.5,2.2-2.4
			c-0.9-0.8-1.8-1.6-2.6-2.3c0,0,0-0.1,0.1-0.1c0.9,0.5,2,1.2,3.3,1.9c0.4-0.8,0.7-1.5,1.1-2.4c0,0,0.4,0,0.7-0.1
			c-0.1-0.4-0.1-0.8-0.4-1.1c-1.5-1.4-3-2.6-4.5-3.8c0.1-0.1,0.1-0.3,0.3-0.4c2.2,1.1,4.5,2.2,6.6,3.3c-0.3,0.8-0.4,1.2-0.5,1.6
			c-1.9,3.8-3.9,7.5-6,11.2c-0.4,0.9-0.8,1.9-1.5,2.7c-2.4,3.3-5,6.5-7.6,9.6C249.8,118.4,248.7,119.5,247.5,120.9z"/>
	</g>
</g>
</svg>
