<svg xmlns="http://www.w3.org/2000/svg" width="21.719" height="25" viewBox="0 0 21.719 25"><path d="M13.776.021C15.14,0,16.494.01,17.849,0a6.488,6.488,0,0,0,1.823,4.344,7.346,7.346,0,0,0,4.417,1.865v4.2A11.149,11.149,0,0,1,19.713,9.4a12.87,12.87,0,0,1-1.687-.969c-.01,3.042.01,6.083-.021,9.114a7.956,7.956,0,0,1-1.406,4.1,7.761,7.761,0,0,1-6.156,3.344,7.6,7.6,0,0,1-4.25-1.073,7.855,7.855,0,0,1-3.8-5.948c-.021-.521-.031-1.042-.01-1.552a7.842,7.842,0,0,1,9.094-6.958c.021,1.542-.042,3.083-.042,4.625A3.574,3.574,0,0,0,6.87,16.291a4.132,4.132,0,0,0-.146,1.677,3.545,3.545,0,0,0,3.646,2.99,3.5,3.5,0,0,0,2.885-1.677,2.4,2.4,0,0,0,.427-1.1c.1-1.865.062-3.719.073-5.583.01-4.2-.01-8.385.021-12.573Z" transform="translate(-2.369)"/></svg>